<svg width="164" height="100" viewBox="0 0 164 100" fill="none" xmlns="http://www.w3.org/2000/svg">
<path d="M163.999 48.5034L147.998 56.0024L132 48.5034L147.998 41.0005L163.999 48.5034Z" fill="url(#paint0_linear)"/>
<path d="M164 63.496L147.998 70.999V56.001L164 48.502V63.496Z" fill="#FEE79A"/>
<path d="M147.998 70.999L132 63.496V48.502L147.998 56.001V70.999Z" fill="#F8BF02"/>
<path d="M147.998 56.0029L132 63.498L147.998 71.0009V56.0029Z" fill="#F8BF02"/>
<path d="M148.085 52.0352C147.694 52.0352 147.378 52.3457 147.378 52.729V53.6507C147.378 53.7399 147.445 53.8291 147.583 53.8952C147.859 54.0307 148.307 54.0307 148.579 53.8952C148.717 53.8291 148.784 53.7399 148.784 53.6507V52.729C148.788 52.3457 148.472 52.0352 148.085 52.0352ZM148.085 53.1452C147.849 53.1452 147.661 52.9602 147.661 52.729C147.661 52.4977 147.849 52.3127 148.085 52.3127C148.32 52.3127 148.509 52.4977 148.509 52.729C148.509 52.9602 148.317 53.1452 148.085 53.1452Z" fill="#171717"/>
<path d="M148.085 42.6113C147.694 42.6113 147.378 42.9219 147.378 43.3051V44.2269C147.378 44.3161 147.445 44.4053 147.583 44.4714C147.859 44.6069 148.307 44.6069 148.579 44.4714C148.717 44.4053 148.784 44.3161 148.784 44.2269V43.3051C148.788 42.9219 148.472 42.6113 148.085 42.6113ZM148.085 43.7214C147.849 43.7214 147.661 43.5364 147.661 43.3051C147.661 43.0739 147.849 42.8889 148.085 42.8889C148.32 42.8889 148.509 43.0739 148.509 43.3051C148.509 43.5364 148.317 43.7214 148.085 43.7214Z" fill="#171717"/>
<path d="M138.042 47.2739C137.652 47.2739 137.336 47.5845 137.336 47.9677V48.8895C137.336 48.9787 137.406 49.0679 137.541 49.134C137.817 49.2694 138.264 49.2694 138.537 49.134C138.675 49.0679 138.742 48.9787 138.742 48.8895V47.9677C138.749 47.5845 138.432 47.2739 138.042 47.2739ZM138.042 48.384C137.807 48.384 137.618 48.199 137.618 47.9677C137.618 47.7365 137.807 47.5514 138.042 47.5514C138.278 47.5514 138.466 47.7365 138.466 47.9677C138.466 48.199 138.278 48.384 138.042 48.384Z" fill="#171717"/>
<path d="M157.969 47.2739C157.579 47.2739 157.263 47.5845 157.263 47.9677V48.8895C157.263 48.9787 157.33 49.0679 157.468 49.134C157.744 49.2694 158.191 49.2694 158.464 49.134C158.602 49.0679 158.669 48.9787 158.669 48.8895V47.9677C158.676 47.5845 158.36 47.2739 157.969 47.2739ZM157.969 48.384C157.734 48.384 157.545 48.199 157.545 47.9677C157.545 47.7365 157.734 47.5514 157.969 47.5514C158.205 47.5514 158.393 47.7365 158.393 47.9677C158.393 48.199 158.205 48.384 157.969 48.384Z" fill="#171717"/>
<path d="M138.163 48.1361C138.119 48.1361 138.075 48.1195 138.042 48.0865C137.978 48.0204 137.978 47.9146 138.045 47.8518L147.95 38.4939C148.014 38.4311 148.118 38.4311 148.182 38.4939L158.086 47.8518C158.153 47.9146 158.157 48.0204 158.09 48.0865C158.026 48.1526 157.918 48.1559 157.851 48.0898L148.064 38.8443L138.277 48.0898C138.247 48.1195 138.203 48.1361 138.163 48.1361Z" fill="#171717"/>
<path d="M148.065 52.8964C147.971 52.8964 147.896 52.8236 147.896 52.7311V38.6121C147.896 38.5195 147.971 38.4468 148.065 38.4468C148.159 38.4468 148.234 38.5195 148.234 38.6121V52.7311C148.234 52.8236 148.159 52.8964 148.065 52.8964Z" fill="#171717"/>
<path d="M148.026 33.2631C147.656 33.2631 147.3 33.1441 147.01 32.9128C146.62 32.6054 146.395 32.1494 146.395 31.6602C146.395 31.3859 146.62 31.1645 146.899 31.1645C147.178 31.1645 147.404 31.3859 147.404 31.6602C147.404 31.8453 147.488 32.0205 147.639 32.1361C147.791 32.2551 147.982 32.2948 148.178 32.2518C148.396 32.2022 148.578 32.0238 148.628 31.8089C148.686 31.5644 148.605 31.3297 148.41 31.181C147.845 30.7381 147.518 30.1102 147.518 29.4591C147.518 29.1848 147.744 28.9634 148.023 28.9634C148.302 28.9634 148.527 29.1848 148.527 29.4591C148.527 29.8094 148.713 30.1532 149.039 30.4076C149.537 30.7943 149.755 31.419 149.611 32.0337C149.473 32.622 148.998 33.088 148.4 33.2235C148.275 33.2499 148.151 33.2631 148.026 33.2631Z" fill="#171717"/>
<path d="M148.064 30.4052C148.597 30.4052 149.029 29.9807 149.029 29.457C149.029 28.9333 148.597 28.5088 148.064 28.5088C147.53 28.5088 147.098 28.9333 147.098 29.457C147.098 29.9807 147.53 30.4052 148.064 30.4052Z" fill="#171717"/>
<path d="M148.065 38.7771C147.971 38.7771 147.896 38.7044 147.896 38.6118V32.1033C147.896 32.0107 147.971 31.938 148.065 31.938C148.159 31.938 148.234 32.0107 148.234 32.1033V38.6118C148.234 38.7044 148.159 38.7771 148.065 38.7771Z" fill="#171717"/>
<path d="M148.285 0H147.947V28.4788H148.285V0Z" fill="url(#paint1_linear)"/>
<path d="M148.064 39.5605C148.597 39.5605 149.029 39.1359 149.029 38.6123C149.029 38.0886 148.597 37.6641 148.064 37.6641C147.53 37.6641 147.098 38.0886 147.098 38.6123C147.098 39.1359 147.53 39.5605 148.064 39.5605Z" fill="#171717"/>
<path d="M18.198 59.174H23.112V61.766C23.112 63.71 22.662 65.456 21.762 67.004C20.862 68.516 19.602 69.704 17.982 70.568C16.362 71.432 14.526 71.864 12.474 71.864C10.386 71.864 8.532 71.432 6.912 70.568C5.292 69.704 4.032 68.516 3.132 67.004C2.232 65.456 1.782 63.692 1.782 61.712V42.164C1.782 40.184 2.232 38.438 3.132 36.926C4.032 35.378 5.292 34.19 6.912 33.362C8.532 32.498 10.386 32.066 12.474 32.066C15.534 32.066 18.018 33.002 19.926 34.874C21.87 36.746 23.04 39.338 23.436 42.65L18.846 43.568C18.702 41.336 18.054 39.572 16.902 38.276C15.75 36.98 14.274 36.332 12.474 36.332C10.602 36.332 9.162 36.836 8.154 37.844C7.182 38.852 6.696 40.292 6.696 42.164V61.712C6.696 63.62 7.182 65.078 8.154 66.086C9.162 67.094 10.602 67.598 12.474 67.598C14.31 67.598 15.714 67.094 16.686 66.086C17.694 65.042 18.198 63.584 18.198 61.712V59.174ZM43.8636 43.73H48.7776V71H43.8636V68.84C43.1076 69.776 42.1716 70.496 41.0556 71C39.9756 71.54 38.7696 71.81 37.4376 71.81C34.7736 71.81 32.5956 70.928 30.9036 69.164C29.2476 67.364 28.4196 65.078 28.4196 62.306V52.424C28.4196 49.616 29.2476 47.33 30.9036 45.566C32.5956 43.802 34.7736 42.92 37.4376 42.92C38.7336 42.92 39.9396 43.172 41.0556 43.676C42.1716 44.18 43.1076 44.9 43.8636 45.836V43.73ZM38.6796 67.436C40.1916 67.436 41.4336 66.968 42.4056 66.032C43.3776 65.06 43.8636 63.818 43.8636 62.306V52.424C43.8636 50.912 43.3776 49.688 42.4056 48.752C41.4336 47.78 40.1916 47.294 38.6796 47.294C37.0956 47.294 35.7996 47.78 34.7916 48.752C33.8196 49.688 33.3336 50.912 33.3336 52.424V62.306C33.3336 63.818 33.8196 65.06 34.7916 66.032C35.7996 66.968 37.0956 67.436 38.6796 67.436ZM65.4379 43.136C67.1299 43.136 68.6419 43.784 69.9739 45.08L67.9219 49.184C66.7339 48.212 65.5819 47.726 64.4659 47.726C63.2059 47.726 62.1619 48.23 61.3339 49.238C60.5419 50.21 60.1459 51.47 60.1459 53.018V71H55.2319V43.73H60.1459V45.512C61.5499 43.928 63.3139 43.136 65.4379 43.136ZM88.2343 43.73H93.1483V71.972C93.1483 73.808 92.6983 75.446 91.7983 76.886C90.9343 78.326 89.7283 79.442 88.1803 80.234C86.6683 81.062 84.9403 81.476 82.9963 81.476C80.3683 81.476 78.1723 80.72 76.4083 79.208C74.6443 77.732 73.5823 75.77 73.2223 73.322L77.7583 72.404C77.9383 73.808 78.4963 74.96 79.4323 75.86C80.4043 76.76 81.5923 77.21 82.9963 77.21C84.5443 77.21 85.8043 76.706 86.7763 75.698C87.7483 74.69 88.2343 73.394 88.2343 71.81V68.138C87.4783 69.074 86.5423 69.812 85.4263 70.352C84.3463 70.856 83.1403 71.108 81.8083 71.108C79.1443 71.108 76.9663 70.226 75.2743 68.462C73.6183 66.662 72.7903 64.376 72.7903 61.604V52.424C72.7903 49.616 73.6183 47.33 75.2743 45.566C76.9663 43.802 79.1443 42.92 81.8083 42.92C83.1043 42.92 84.3103 43.172 85.4263 43.676C86.5423 44.18 87.4783 44.9 88.2343 45.836V43.73ZM83.0503 66.734C84.5623 66.734 85.8043 66.266 86.7763 65.33C87.7483 64.358 88.2343 63.116 88.2343 61.604V52.424C88.2343 50.912 87.7483 49.688 86.7763 48.752C85.8043 47.78 84.5623 47.294 83.0503 47.294C81.4663 47.294 80.1703 47.78 79.1623 48.752C78.1903 49.688 77.7043 50.912 77.7043 52.424V61.604C77.7043 63.116 78.1903 64.358 79.1623 65.33C80.1703 66.266 81.4663 66.734 83.0503 66.734ZM119.51 61.334C119.51 64.61 118.61 67.184 116.81 69.056C115.046 70.892 112.58 71.81 109.412 71.81C106.244 71.81 103.76 70.892 101.96 69.056C100.196 67.184 99.3136 64.61 99.3136 61.334V53.396C99.3136 50.12 100.196 47.564 101.96 45.728C103.76 43.856 106.244 42.92 109.412 42.92C112.58 42.92 115.046 43.856 116.81 45.728C118.61 47.564 119.51 50.12 119.51 53.396V61.334ZM114.596 53.45C114.596 51.47 114.128 49.94 113.192 48.86C112.292 47.744 111.032 47.186 109.412 47.186C107.792 47.186 106.514 47.744 105.578 48.86C104.678 49.94 104.228 51.47 104.228 53.45V61.28C104.228 63.26 104.678 64.808 105.578 65.924C106.514 67.004 107.792 67.544 109.412 67.544C111.032 67.544 112.292 67.004 113.192 65.924C114.128 64.808 114.596 63.26 114.596 61.28V53.45Z" fill="#171717"/>
<path d="M142.76 79.48V81.496H140.168V91H137.512V81.496H134.92V79.48H142.76ZM151.056 87.896C151.056 88.5253 150.89 89.096 150.56 89.608C150.24 90.1093 149.797 90.5093 149.232 90.808C148.666 91.096 148.032 91.24 147.327 91.24H147.312H147.295C146.591 91.24 145.957 91.096 145.391 90.808C144.826 90.5093 144.378 90.1093 144.047 89.608C143.727 89.096 143.567 88.5253 143.567 87.896V82.568C143.567 81.9493 143.733 81.3893 144.063 80.888C144.394 80.376 144.842 79.976 145.407 79.688C145.973 79.3893 146.602 79.24 147.295 79.24H147.312H147.327C148.021 79.24 148.65 79.3893 149.215 79.688C149.781 79.976 150.229 80.376 150.56 80.888C150.89 81.3893 151.056 81.9493 151.056 82.568V87.896ZM148.399 82.6C148.399 82.216 148.293 81.9013 148.079 81.656C147.877 81.4 147.621 81.2667 147.312 81.256C147.002 81.2667 146.741 81.4 146.527 81.656C146.325 81.9013 146.223 82.216 146.223 82.6V87.88C146.223 88.264 146.325 88.584 146.527 88.84C146.741 89.0853 147.002 89.2133 147.312 89.224C147.621 89.2133 147.877 89.0853 148.079 88.84C148.293 88.584 148.399 88.264 148.399 87.88V82.6ZM158.193 86.04V79.48H160.849V91H158.193L155.233 84.44V91H152.577V79.48H155.233L158.193 86.04Z" fill="#171717"/>
<defs>
<linearGradient id="paint0_linear" x1="148" y1="55.8201" x2="148" y2="41.2234" gradientUnits="userSpaceOnUse">
<stop stop-color="#FEE79A"/>
<stop offset="1" stop-color="#F8BF02"/>
</linearGradient>
<linearGradient id="paint1_linear" x1="148.116" y1="0" x2="148.116" y2="28.4788" gradientUnits="userSpaceOnUse">
<stop stop-color="#171717" stop-opacity="0"/>
<stop offset="0.728355" stop-color="#171717"/>
</linearGradient>
</defs>
</svg>
